<svg width="19" height="17" viewBox="0 0 19 17" fill="none" xmlns="http://www.w3.org/2000/svg">
<path d="M14 3.75C14 4.99264 12.9926 6 11.75 6V7.5C13.8211 7.5 15.5 5.82107 15.5 3.75H14ZM11.75 6C10.5074 6 9.5 4.99264 9.5 3.75H8C8 5.82107 9.67893 7.5 11.75 7.5V6ZM9.5 3.75C9.5 2.50736 10.5074 1.5 11.75 1.5V0C9.67893 0 8 1.67893 8 3.75H9.5ZM11.75 1.5C12.9926 1.5 14 2.50736 14 3.75H15.5C15.5 1.67893 13.8211 0 11.75 0V1.5ZM8.75 10.5H14.75V9H8.75V10.5ZM14.75 15H8.75V16.5H14.75V15ZM8.75 15C7.50736 15 6.5 13.9926 6.5 12.75H5C5 14.8211 6.67893 16.5 8.75 16.5V15ZM17 12.75C17 13.9926 15.9926 15 14.75 15V16.5C16.8211 16.5 18.5 14.8211 18.5 12.75H17ZM14.75 10.5C15.9926 10.5 17 11.5074 17 12.75H18.5C18.5 10.6789 16.8211 9 14.75 9V10.5ZM8.75 9C6.67893 9 5 10.6789 5 12.75H6.5C6.5 11.5074 7.50736 10.5 8.75 10.5V9Z" fill="#2D264B"/>
<path d="M7.50214 6.38865C7.34441 6.13527 7.04846 6 6.75 6C5.50736 6 4.5 4.99264 4.5 3.75C4.5 2.50736 5.50736 1.5 6.75 1.5C7.04846 1.5 7.34441 1.36473 7.50214 1.11135C7.50912 1.10014 7.51613 1.08896 7.5232 1.07782C7.7858 0.663308 7.65275 0.0764006 7.165 0.0227032C7.02873 0.00770099 6.89027 0 6.75 0C4.67893 0 3 1.67893 3 3.75C3 5.82107 4.67893 7.5 6.75 7.5C6.89027 7.5 7.02873 7.4923 7.165 7.4773C7.65275 7.4236 7.7858 6.83669 7.5232 6.42218C7.51614 6.41104 7.50912 6.39986 7.50214 6.38865Z" fill="#2D264B"/>
<path d="M4.45829 14.3169C4.34477 14.1275 4.14439 14 3.92359 14H3.75C2.50736 14 1.5 12.9926 1.5 11.75C1.5 10.5074 2.50736 9.5 3.75 9.5H3.92359C4.14439 9.5 4.34477 9.37252 4.45829 9.18313C4.73539 8.72082 4.43468 8 3.89569 8H3.75C1.67893 8 0 9.67893 0 11.75C0 13.8211 1.67893 15.5 3.75 15.5H3.89569C4.43469 15.5 4.73539 14.7792 4.45829 14.3169Z" fill="#2D264B"/>
</svg>
