<svg width="19" height="22" viewBox="0 0 19 22" fill="none" xmlns="http://www.w3.org/2000/svg">
<path d="M1.67988 9.85767L2.05488 9.20815H2.05488L1.67988 9.85767ZM1.48914 9.74199L1.05229 10.3516H1.05229L1.48914 9.74199ZM1.2681 8.32089L1.91762 8.69589L1.2681 8.32089ZM1.16076 8.51644L0.477611 8.20691L1.16076 8.51644ZM16.8566 17.3209L17.5061 17.6959L16.8566 17.3209ZM16.7409 17.5116L17.3505 17.9485L16.7409 17.5116ZM15.3198 17.7327L15.6948 17.0832L15.3198 17.7327ZM15.5153 17.84L15.2058 18.5232L15.5153 17.84ZM13.9741 6.56344L13.5991 7.21296L13.9741 6.56344ZM15.3092 7.37319L15.7461 6.76356L15.3092 7.37319ZM17.6079 15.9521L18.2911 16.2616L17.6079 15.9521ZM12.0255 5.43844L12.4005 4.78892L12.0255 5.43844ZM10.6567 4.68707L10.9663 4.00393L10.6567 4.68707ZM2.07785 6.98578L2.68748 7.42263L2.07785 6.98578ZM15.4991 1.67071L15.1241 2.32023V2.32023L15.4991 1.67071ZM17.3292 8.50083L17.9788 8.87583V8.87583L17.3292 8.50083ZM8.66898 3.50083L9.3185 3.87583L9.3185 3.87583L8.66898 3.50083ZM17.0234 9.03051L17.602 9.50773L17.6417 9.45958L17.6729 9.40552L17.0234 9.03051ZM8.49983 13.7952L8.87483 13.1457L8.87482 13.1457L8.49983 13.7952ZM3.85031 20.3484C3.6432 20.7071 3.76611 21.1658 4.12483 21.3729C4.48354 21.58 4.94224 21.4571 5.14934 21.0984L3.85031 20.3484ZM8.33168 4.08505L8.27143 4.83263L8.33168 4.08505ZM8.4688 13.7773L8.0938 14.4268L8.0938 14.4268L8.4688 13.7773ZM11.6505 6.08796L13.5991 7.21296L14.3491 5.91392L12.4005 4.78892L11.6505 6.08796ZM2.05488 9.20815C2.00241 9.17786 1.9712 9.15981 1.94786 9.1458C1.92571 9.1325 1.92251 9.12985 1.926 9.13236L1.05229 10.3516C1.12972 10.4071 1.2198 10.4581 1.30488 10.5072L2.05488 9.20815ZM0.618578 7.94589C0.569459 8.03097 0.516925 8.12014 0.477611 8.20691L1.84391 8.82597C1.84213 8.82988 1.84358 8.82599 1.85611 8.8034C1.86932 8.7796 1.88733 8.74836 1.91762 8.69589L0.618578 7.94589ZM1.926 9.13236C1.82906 9.06289 1.79468 8.93461 1.84391 8.82597L0.477611 8.20691C0.13305 8.96737 0.373657 9.86533 1.05229 10.3516L1.926 9.13236ZM16.207 16.9459C16.1767 16.9984 16.1587 17.0296 16.1447 17.0529C16.1314 17.0751 16.1287 17.0783 16.1312 17.0748L17.3505 17.9485C17.406 17.871 17.457 17.781 17.5061 17.6959L16.207 16.9459ZM14.9448 18.3822C15.0298 18.4313 15.119 18.4838 15.2058 18.5232L15.8249 17.1569C15.8288 17.1586 15.8249 17.1572 15.8023 17.1447C15.7785 17.1315 15.7472 17.1134 15.6948 17.0832L14.9448 18.3822ZM16.1312 17.0748C16.0618 17.1717 15.9335 17.2061 15.8249 17.1569L15.2058 18.5232C15.9663 18.8677 16.8642 18.6271 17.3505 17.9485L16.1312 17.0748ZM13.5991 7.21296C14.3183 7.62818 14.6303 7.80939 14.8724 7.98283L15.7461 6.76356C15.4291 6.53638 15.0374 6.3113 14.3491 5.91392L13.5991 7.21296ZM17.5061 17.6959C17.9034 17.0076 18.1301 16.6169 18.2911 16.2616L16.9248 15.6425C16.8019 15.9138 16.6223 16.2267 16.207 16.9459L17.5061 17.6959ZM12.4005 4.78892C11.7123 4.39155 11.3215 4.16489 10.9663 4.00393L10.3472 5.37022C10.6184 5.49311 10.9314 5.67274 11.6505 6.08796L12.4005 4.78892ZM1.91762 8.69589C2.33284 7.97671 2.51405 7.66466 2.68748 7.42263L1.46821 6.54892C1.24103 6.86594 1.01595 7.25762 0.618578 7.94589L1.91762 8.69589ZM15.1241 2.32023C17.1568 3.49383 17.8533 6.09309 16.6797 8.12583L17.9788 8.87583C19.5666 6.12565 18.6243 2.60901 15.8741 1.02119L15.1241 2.32023ZM9.3185 3.87583C10.4921 1.84309 13.0914 1.14662 15.1241 2.32023L15.8741 1.02119C13.1239 -0.566629 9.60728 0.375651 8.01946 3.12583L9.3185 3.87583ZM16.6797 8.12583L16.3739 8.65551L17.6729 9.40552L17.9788 8.87583L16.6797 8.12583ZM7.85031 13.4202L3.85031 20.3484L5.14934 21.0984L9.14934 14.1702L7.85031 13.4202ZM8.9812 4.46005L9.3185 3.87583L8.01946 3.12583L7.68216 3.71005L8.9812 4.46005ZM10.9663 4.00393C10.1338 3.62676 9.26328 3.4077 8.39193 3.33748L8.27143 4.83263C8.97308 4.88918 9.67472 5.06553 10.3472 5.37022L10.9663 4.00393ZM8.39193 3.33748C5.74327 3.124 3.08943 4.28651 1.46821 6.54892L2.68748 7.42263C3.99432 5.59895 6.13403 4.66036 8.27143 4.83263L8.39193 3.33748ZM14.8724 7.98283C15.4694 8.41064 15.9708 8.92697 16.3696 9.50273L17.6027 8.64864C17.1075 7.93362 16.4851 7.29312 15.7461 6.76356L14.8724 7.98283ZM16.3696 9.50273C17.5928 11.2687 17.8523 13.5955 16.9248 15.6425L18.2911 16.2616C19.4417 13.7221 19.1185 10.8371 17.6027 8.64864L16.3696 9.50273ZM16.4448 8.5533L16.4076 8.59846L17.5648 9.5529L17.602 9.50773L16.4448 8.5533ZM15.6948 17.0832L8.87483 13.1457L8.12483 14.4447L14.9448 18.3822L15.6948 17.0832ZM8.87482 13.1457L8.8438 13.1277L8.0938 14.4268L8.12483 14.4447L8.87482 13.1457ZM8.8438 13.1277L2.05488 9.20815L1.30488 10.5072L8.0938 14.4268L8.8438 13.1277Z" fill="#2D264B"/>
</svg>
