<svg width="20" height="19" viewBox="0 0 20 19" fill="none" xmlns="http://www.w3.org/2000/svg">
<path d="M1 7C1 5.61929 2.11929 4.5 3.5 4.5C4.88071 4.5 6 5.61929 6 7V15C6 16.3807 4.88071 17.5 3.5 17.5C2.11929 17.5 1 16.3807 1 15V7Z" stroke="#2D264B" stroke-width="1.5"/>
<path d="M9.57541 1.68995L7.34488 5.31457C6.74601 6.28774 6.44657 6.77432 6.26551 7.30755C6.21028 7.4702 6.16347 7.63559 6.12526 7.80305C6 8.35208 6 8.92341 6 10.0661V13.5C6 15.7091 7.79086 17.5 10 17.5H12.9098C14.8037 17.5 16.535 16.43 17.382 14.7361L18.5305 12.439C19.6651 10.1699 18.015 7.5 15.478 7.5H14.7882C13.0593 7.5 11.7371 5.95887 12 4.25L12.243 2.67022C12.3782 1.79201 11.6987 1 10.8101 1C10.3067 1 9.83927 1.26118 9.57541 1.68995Z" stroke="#2D264B" stroke-width="1.5"/>
</svg>
