<svg width="22" height="22" viewBox="0 0 22 22" fill="none" xmlns="http://www.w3.org/2000/svg">
<path d="M3.38766 20.2632L3.77953 19.6237L3.38766 20.2632ZM1.73695 18.6125L2.37643 18.2206H2.37643L1.73695 18.6125ZM20.2634 18.6125L19.6239 18.2206L20.2634 18.6125ZM18.6126 20.2632L18.2208 19.6237L18.6126 20.2632ZM18.6126 4.7368L18.2208 5.37628L18.6126 4.7368ZM20.2634 6.38751L19.6239 6.77938L20.2634 6.38751ZM3.38766 4.7368L3.77953 5.37628H3.77953L3.38766 4.7368ZM1.73695 6.38751L2.37643 6.77938H2.37643L1.73695 6.38751ZM17.4769 1.54645L18.0182 1.02728V1.02728L17.4769 1.54645ZM2.84437 1.89079L3.29721 2.48865V2.48865L2.84437 1.89079ZM1.85459 2.92267L2.46991 3.35148L1.85459 2.92267ZM18.0002 4.13032H18.7502L18.7501 4.12662L18.0002 4.13032ZM17.3638 12.6137C17.778 12.6137 18.1138 12.2779 18.1138 11.8637C18.1138 11.4494 17.778 11.1137 17.3638 11.1137V12.6137ZM14.6365 11.1137C14.2223 11.1137 13.8865 11.4494 13.8865 11.8637C13.8865 12.2779 14.2223 12.6137 14.6365 12.6137V11.1137ZM9.50015 4.75H12.5002V3.25H9.50015V4.75ZM12.5002 20.25H9.50015V21.75H12.5002V20.25ZM9.50015 20.25C7.84891 20.25 6.66315 20.2492 5.73824 20.1613C4.82449 20.0744 4.24306 19.9078 3.77953 19.6237L2.99578 20.9027C3.7346 21.3554 4.57271 21.5572 5.59626 21.6545C6.60865 21.7508 7.87796 21.75 9.50015 21.75V20.25ZM0.25015 12.5C0.25015 14.1222 0.249359 15.3915 0.345618 16.4039C0.442937 17.4274 0.644719 18.2655 1.09747 19.0044L2.37643 18.2206C2.09238 17.7571 1.92576 17.1757 1.83888 16.2619C1.75094 15.337 1.75015 14.1512 1.75015 12.5H0.25015ZM3.77953 19.6237C3.20767 19.2733 2.72687 18.7925 2.37643 18.2206L1.09747 19.0044C1.57159 19.7781 2.22209 20.4286 2.99578 20.9027L3.77953 19.6237ZM12.5002 21.75C14.1223 21.75 15.3917 21.7508 16.404 21.6545C17.4276 21.5572 18.2657 21.3554 19.0045 20.9027L18.2208 19.6237C17.7572 19.9078 17.1758 20.0744 16.2621 20.1613C15.3371 20.2492 14.1514 20.25 12.5002 20.25V21.75ZM19.6239 18.2206C19.2734 18.7925 18.7926 19.2733 18.2208 19.6237L19.0045 20.9027C19.7782 20.4286 20.4287 19.7781 20.9028 19.0044L19.6239 18.2206ZM18.2208 5.37628C18.7926 5.72672 19.2734 6.20752 19.6239 6.77938L20.9028 5.99563C20.4287 5.22194 19.7782 4.57144 19.0045 4.09732L18.2208 5.37628ZM9.50015 3.25C7.87796 3.25 6.60865 3.24921 5.59626 3.34547C4.57271 3.44279 3.7346 3.64457 2.99578 4.09732L3.77953 5.37628C4.24306 5.09223 4.82449 4.92561 5.73824 4.83873C6.66315 4.75079 7.84891 4.75 9.50015 4.75V3.25ZM1.75015 12.5C1.75015 10.8488 1.75094 9.663 1.83888 8.73809C1.92576 7.82434 2.09238 7.24291 2.37643 6.77938L1.09747 5.99563C0.644719 6.73445 0.442937 7.57256 0.345618 8.59611C0.249359 9.6085 0.25015 10.8778 0.25015 12.5H1.75015ZM2.99578 4.09732C2.22209 4.57144 1.57159 5.22194 1.09747 5.99563L2.37643 6.77938C2.72687 6.20752 3.20767 5.72672 3.77953 5.37628L2.99578 4.09732ZM9.05322 1.75H14.4219V0.25H9.05322V1.75ZM14.4219 1.75C15.2876 1.75 15.8583 1.75173 16.2815 1.81105C16.6798 1.86687 16.8347 1.96039 16.9357 2.06562L18.0182 1.02728C17.595 0.586062 17.066 0.406351 16.4897 0.325567C15.9382 0.248272 15.2435 0.25 14.4219 0.25V1.75ZM9.05322 0.25C7.39302 0.25 6.08509 0.248882 5.04743 0.366088C3.99381 0.485096 3.12984 0.733701 2.39153 1.29293L3.29721 2.48865C3.73494 2.15709 4.29779 1.9603 5.21579 1.85661C6.14974 1.75112 7.35822 1.75 9.05322 1.75V0.25ZM1.75015 9.39563C1.75015 7.63063 1.7511 6.36468 1.85294 5.38472C1.9535 4.41704 2.14565 3.81679 2.46991 3.35148L1.23928 2.49385C0.7091 3.25462 0.47402 4.14188 0.360973 5.22968C0.249202 6.3052 0.25015 7.6627 0.25015 9.39563H1.75015ZM2.39153 1.29293C1.94821 1.62872 1.5596 2.03422 1.23928 2.49385L2.46991 3.35148C2.70149 3.01918 2.98091 2.72823 3.29721 2.48865L2.39153 1.29293ZM18.7501 4.12662C18.7468 3.44995 18.7324 2.86358 18.6476 2.37747C18.5596 1.87228 18.3855 1.41025 18.0182 1.02728L16.9357 2.06562C17.029 2.16295 17.1132 2.30988 17.1699 2.63506C17.2299 2.97932 17.2468 3.44473 17.2502 4.13403L18.7501 4.12662ZM0.25015 9.39563C0.25015 10.3713 0.22999 11.2642 0.250407 12.0202L1.74986 11.9798C1.7301 11.2482 1.75015 10.424 1.75015 9.39563H0.25015ZM20.5001 13.8409H14.6365V15.3409H20.5001V13.8409ZM11.1592 11.8637C11.1592 13.7841 12.7161 15.3409 14.6365 15.3409V13.8409C13.5445 13.8409 12.6592 12.9557 12.6592 11.8637H11.1592ZM12.6592 11.8637C12.6592 10.7716 13.5445 9.88638 14.6365 9.88638V8.38638C12.7161 8.38638 11.1592 9.94321 11.1592 11.8637H12.6592ZM17.3638 11.1137H14.6365V12.6137H17.3638V11.1137ZM12.5002 4.75C13.8848 4.75 14.9451 4.75032 15.8037 4.8033C16.6614 4.85623 17.2611 4.95942 17.7339 5.13895L18.2664 3.73667C17.5863 3.47839 16.8121 3.36267 15.896 3.30615C14.9808 3.24968 13.8675 3.25 12.5002 3.25V4.75ZM17.7339 5.13895C17.9109 5.20619 18.0712 5.2846 18.2208 5.37628L19.0045 4.09732C18.7711 3.95427 18.5262 3.83534 18.2664 3.73667L17.7339 5.13895ZM17.2502 4.13032V4.43781H18.7502V4.13032H17.2502ZM14.6365 9.88638H20.9446V8.38638H14.6365V9.88638ZM21.7502 12.5C21.7502 11.1255 21.7505 10.0077 21.6931 9.08959L20.196 9.18316C20.2498 10.0439 20.2502 11.108 20.2502 12.5H21.7502ZM21.6931 9.08959C21.6147 7.83476 21.4249 6.84749 20.9028 5.99563L19.6239 6.77938C19.9528 7.3161 20.1225 8.00707 20.196 9.18316L21.6931 9.08959ZM20.2502 12.5C20.2502 13.2875 20.2501 13.9722 20.2401 14.5785L21.7399 14.6034C21.7502 13.9821 21.7502 13.2839 21.7502 12.5H20.2502ZM20.2401 14.5785C20.2075 16.537 20.0636 17.5031 19.6239 18.2206L20.9028 19.0044C21.583 17.8944 21.7079 16.5313 21.7399 14.6034L20.2401 14.5785ZM20.5001 15.3409H20.99V13.8409H20.5001V15.3409Z" fill="#2D264B"/>
</svg>
